PathFileType	3	(X/Y/Z)	D:\minhoCalibration\240510\subject2_KPNP\preferred\preferred07.trc
DataRate	CameraRate	NumFrames	NumMarkers	Units	OrigDataRate	OrigDataStartFrame	OrigNumFrames
200.0	200.0	18	10	mm	200.0	390	181	
Frame#	Time	Left_Ankle_Outer1			Left_Ankle_Inner1			Left_Knee_Outer1			Left_Knee_Inner1			Left_Wrist1			Right_Wrist1			Right_Knee_Inner1			Right_Knee_Outer1			Right_Ankle_Inner1			Right_Ankle_Outer1			
		X1	Y1	Z1	X2	Y2	Z2	X3	Y3	Z3	X4	Y4	Z4	X5	Y5	Z5	X6	Y6	Z6	X7	Y7	Z7	X8	Y8	Z8	X9	Y9	Z9	X10	Y10	Z10	
390	1.94	-544.11035	113.26595	-740.15149	-546.66705	120.94183	-684.89172	-381.51022	529.565	-778.79913	-395.08249	514.36212	-684.50964	-449.02502	955.44843	-864.74939	-501.57248	1179.5789	-600.01453	-349.8447	978.11066	-220.11189	-382.37253	1064.0138	-216.91301	-388.63052	861.37207	163.5054	-423.20889	948.47186	192.85394
391	1.945	-543.51691	113.27857	-741.65588	-546.42322	122.0592	-684.26062	-380.73508	528.47772	-779.12811	-395.37988	513.78247	-684.95502	-446.02963	956.25922	-864.29468	-505.93912	1178.743	-600.409	-351.53439	976.13397	-221.18378	-386.0108	1061.2922	-217.8149	-397.91507	850.78235	160.40242	-431.65109	937.65216	190.45363
392	1.95	-543.04132	113.32504	-743.11523	-546.16003	120.81573	-688.69733	-379.27185	528.29517	-779.48724	-395.71851	513.38599	-685.23529	-442.95508	956.73578	-864.16101	-510.36453	1177.8612	-600.96613	-352.68964	973.84167	-222.08603	-389.466	1058.4252	-218.5462	-407.00537	839.5744	156.17844	-440.99026	925.23615	187.06544
393	1.955	-542.66797	113.26574	-744.17694	-546.5686	120.16889	-690.68506	-378.31052	527.94775	-779.38599	-396.14316	513.20825	-685.39459	-439.59793	957.4223	-863.96887	-514.80023	1176.9656	-601.59192	-353.33533	972.13953	-223.27393	-392.59033	1055.4354	-219.13304	-417.03583	826.95532	150.63811	-451.34036	912.32208	183.13069
394	1.96	-542.27802	112.95212	-744.56458	-546.08795	121.05482	-690.20221	-377.48669	527.40942	-779.33765	-396.71399	512.92383	-685.29138	-436.79895	957.61017	-862.69153	-519.09094	1175.8024	-602.03107	-353.41885	970.22217	-224.39801	-395.72394	1052.3579	-219.39677	-425.465	814.89734	143.96577	-461.72137	898.80115	178.44026
395	1.965	-542.10413	113.31924	-745.66406	-546.88049	119.59101	-692.83215	-376.57742	527.42896	-779.16077	-396.66714	513.47601	-685.50934	-433.78906	957.89429	-861.48206	-523.19055	1174.688	-603.12463	-353.57932	968.48425	-225.80424	-398.06149	1049.1473	-220.215	-434.56476	802.1485	137.47891	-472.31979	885.12323	173.20076
396	1.97	-541.88	113.34212	-746.10529	-546.85876	119.62823	-693.16541	-375.50778	527.92474	-779.05725	-396.9545	513.84308	-685.52429	-430.47147	958.18738	-861.12689	-527.26709	1173.4758	-603.95099	-353.97098	966.26788	-227.3394	-400.55658	1045.7491	-220.7487	-443.66516	789.95325	130.8634	-483.21899	871.61536	167.3289
397	1.975	-541.74579	113.39133	-746.42755	-546.54919	120.69881	-691.55353	-375.2002	527.73334	-778.65051	-397.24503	514.25354	-685.52173	-427.67053	958.38898	-860.13647	-531.26196	1172.199	-604.83752	-354.69098	963.75714	-228.93513	-403.13058	1041.9688	-221.27844	-451.436	777.73206	121.77941	-494.06995	857.90527	160.65559
398	1.98	-541.6272	113.29249	-746.59241	-546.43475	120.23875	-692.91162	-374.81967	527.86469	-778.29413	-397.48575	514.67426	-685.47015	-425.30246	958.42493	-858.8302	-535.22968	1170.8617	-605.59393	-355.82889	960.64795	-230.50903	-405.76526	1038.155	-221.66376	-464.02991	763.53473	115.22581	-504.98236	844.19037	153.46437
399	1.985	-541.49689	113.2098	-746.74561	-546.38373	121.82706	-689.75171	-374.18848	528.20966	-777.98962	-397.70865	514.95105	-685.33423	-422.37283	958.8924	-858.55682	-539.00354	1169.3828	-606.33447	-357.35995	957.07324	-232.0779	-408.44379	1033.8336	-222.18126	-474.40271	750.59198	106.03462	-515.72656	830.04944	145.54085
400	1.99	-541.27545	112.82436	-746.4281	-546.22382	120.60161	-692.71515	-373.82541	528.35699	-777.51007	-397.90146	515.14948	-685.19666	-419.6937	959.47675	-857.96515	-542.8103	1168.3142	-606.34851	-359.0603	953.12683	-233.67572	-411.32495	1029.0859	-222.64928	-485.30911	736.9444	96.314621	-526.79156	815.76166	137.17062
401	1.995	-541.14136	112.66844	-746.55176	-546.74579	120.5164	-692.07953	-373.47397	528.44275	-776.94629	-398.26666	515.26874	-685.04303	-417.29535	959.745	-857.08606	-545.75641	1165.2113	-611.62286	-360.96155	948.85809	-235.28252	-414.34927	1024.0297	-223.35648	-497.65756	722.40771	86.89537	-537.61115	801.22162	127.99466
402	2	-540.95319	112.55799	-746.82172	-547.35828	118.80826	-695.16241	-373.02399	528.53729	-776.35004	-398.83328	515.35693	-684.92694	-414.4758	960.53235	-857.17584	-550.23346	1164.0054	-610.3017	-362.98645	944.26428	-236.99312	-417.32187	1018.5972	-224.55989	-506.90836	709.29456	75.27597	-548.69885	786.61023	118.41868
403	2.005	-540.75867	112.31631	-747.23474	-546.87646	120.0554	-692.90942	-372.39536	528.76068	-775.75897	-399.40839	515.22339	-684.6015	-411.99051	961.18787	-856.77155	-553.60925	1162.2847	-611.58093	-365.06329	939.46295	-238.63734	-420.82281	1012.8593	-225.53671	-517.17383	695.30554	64.198341	-559.47101	771.7713	108.16282
404	2.01	-540.62787	112.46801	-748.29828	-546.69867	120.91237	-691.5415	-371.9787	528.60114	-775.09125	-399.89764	515.08209	-684.2782	-409.56693	962.0163	-856.54248	-556.88062	1160.5282	-613.1228	-367.24625	934.47754	-240.38765	-424.61459	1006.8273	-226.62456	-527.0191	681.38635	52.502644	-570.21112	756.9624	97.933258
405	2.015	-540.37598	112.24432	-749.03503	-546.90698	118.89174	-695.95123	-371.79245	528.27655	-774.31543	-400.42834	514.90936	-683.95117	-407.11816	962.67365	-856.21265	-560.28802	1159.0636	-614.68951	-369.52554	929.26239	-242.1375	-428.63153	1000.5714	-227.76129	-537.6311	666.82715	40.757881	-580.93335	741.78381	86.516968
406	2.02	-539.95575	111.65472	-749.37231	-546.737	118.89718	-696.51715	-371.49789	527.7876	-773.50897	-401.15775	514.65613	-683.58087	-404.81842	963.604	-856.07367	-563.51984	1157.448	-616.06549	-372.08875	923.75946	-243.91292	-432.75888	994.08838	-228.99615	-546.1825	653.06885	27.024979	-591.76495	726.54065	74.873116
407	2.025	-539.62714	111.34618	-750.47009	-546.98883	119.71712	-694.6228	-370.74506	527.91803	-772.85968	-401.95749	514.38367	-683.18372	-402.45065	964.4892	-855.85498	-566.71069	1155.9249	-617.44421	-375.06766	918.00104	-245.62733	-436.96469	987.42041	-230.24187	-557.08508	638.54047	14.64706	-601.99414	710.86774	62.240822
